<svg xmlns="http://www.w3.org/2000/svg" width="800" height="600" viewBox="0 0 800 600" role="img" aria-labelledby="title desc">
  <title id="title">City information guide artwork</title>
  <desc id="desc">A simple skyline, clock, and sun illustration.</desc>
  <rect width="800" height="600" fill="#eef7f6"/>
  <circle cx="585" cy="150" r="48" fill="#ffad18"/>
  <path d="M0 352c92-58 172-58 250 0 82 61 170 63 260 4 86-57 174-61 290-13v257H0z" fill="#cde7e2"/>
  <rect x="126" y="298" width="92" height="180" fill="#1e2d4b"/>
  <rect x="258" y="220" width="106" height="258" fill="#1e2d4b"/>
  <rect x="404" y="270" width="92" height="208" fill="#1e2d4b"/>
  <rect x="536" y="196" width="120" height="282" fill="#1e2d4b"/>
  <rect x="152" y="330" width="30" height="30" fill="#fffaf0"/>
  <rect x="292" y="262" width="34" height="34" fill="#fffaf0"/>
  <rect x="432" y="312" width="30" height="30" fill="#fffaf0"/>
  <rect x="576" y="240" width="34" height="34" fill="#fffaf0"/>
  <circle cx="360" cy="142" r="74" fill="#fffaf0"/>
  <path d="M360 98v46l34 26" fill="none" stroke="#058044" stroke-width="16" stroke-linecap="round" stroke-linejoin="round"/>
  <rect x="96" y="478" width="608" height="34" rx="17" fill="#058044"/>
</svg>
